inDegrees=no
num_controls=7
num_derivatives=13
num_iterations=176
num_multipliers=7
num_parameters=0
num_slacks=7
num_states=26
objective=0.497088
objective_accelerations=0.032335
objective_balance=0.003249
objective_effort=0.035035
objective_height=0.420971
objective_ligament=0.005497
solver_duration=2021.557610
status=Solve_Succeeded
success=true
DataType=double
version=3
OpenSimVersion=4.5
endheader
time	/jointset/ground_pelvis/pelvis_tilt/value	/jointset/ground_pelvis/pelvis_tx/value	/jointset/ground_pelvis/pelvis_ty/value	/jointset/hip_r/hip_flexion_r/value	/jointset/hip_r/hip_adduction_r/value	/jointset/hip_r/hip_rotation_r/value	/jointset/back/lumbar_extension/value	/jointset/patellofemoral_r/patellar_flexion_r/value	/jointset/knee_r/knee_flexion_r/value	/jointset/knee_r/knee_adduction_r/value	/jointset/knee_r/knee_rotation_r/value	/jointset/ankle_r/ankle_angle_r/value	/jointset/subtalar_r/subtalar_angle_r/value	/jointset/ground_pelvis/pelvis_tilt/speed	/jointset/ground_pelvis/pelvis_tx/speed	/jointset/ground_pelvis/pelvis_ty/speed	/jointset/hip_r/hip_flexion_r/speed	/jointset/hip_r/hip_adduction_r/speed	/jointset/hip_r/hip_rotation_r/speed	/jointset/back/lumbar_extension/speed	/jointset/patellofemoral_r/patellar_flexion_r/speed	/jointset/knee_r/knee_flexion_r/speed	/jointset/knee_r/knee_adduction_r/speed	/jointset/knee_r/knee_rotation_r/speed	/jointset/ankle_r/ankle_angle_r/speed	/jointset/subtalar_r/subtalar_angle_r/speed	/forceset/tau_hip_flexion_r	/forceset/tau_hip_adduction_r	/forceset/tau_hip_rotation_r	/forceset/tau_knee_flexion_r	/forceset/tau_ankle_angle_r	/forceset/tau_subtalar_angle_r	/forceset/tau_lumbar_extension	lambda_cid13_p0	lambda_cid14_p0	lambda_cid14_p1	lambda_cid14_p2	lambda_cid14_p3	lambda_cid14_p4	lambda_cid14_p5	/jointset/ground_pelvis/pelvis_tilt/accel	/jointset/ground_pelvis/pelvis_tx/accel	/jointset/ground_pelvis/pelvis_ty/accel	/jointset/hip_r/hip_flexion_r/accel	/jointset/hip_r/hip_adduction_r/accel	/jointset/hip_r/hip_rotation_r/accel	/jointset/back/lumbar_extension/accel	/jointset/patellofemoral_r/patellar_flexion_r/accel	/jointset/knee_r/knee_flexion_r/accel	/jointset/knee_r/knee_adduction_r/accel	/jointset/knee_r/knee_rotation_r/accel	/jointset/ankle_r/ankle_angle_r/accel	/jointset/subtalar_r/subtalar_angle_r/accel	gamma_cid13_p0	gamma_cid14_p0	gamma_cid14_p1	gamma_cid14_p2	gamma_cid14_p3	gamma_cid14_p4	gamma_cid14_p5
1.5	-0.1064440019141995	0.06328619862280691	0.8715354876900514	0.6612150812029712	-0.2276891303788382	-0.1438601090658253	-0.2786272313643917	0.6441003179536283	0.6441003179535717	0.04219642657677677	0.1745244596877032	0.2594015216856088	0.05884591944497885	0.2280978266315463	0.1169949951479102	0.3219478748401395	-1.433703995346065	0.01935133518905561	-0.2809815708609184	0.6988768606338249	-1.736335405486708	-1.736335405486749	0.2753522802550221	2.085365108018154e-05	-0.6200075317447209	-0.1523921698073842	-0.06475567494779319	-0.01746619557788135	0.006693319501974724	-0.3200872551783328	0.04962640525215348	-0.01022069376853488	0.1219177339507243	-34.39957422224975	-25.75551183886635	-4.774169638519998	-3.546931672159094	4.446075000297414	-662.8986380808813	58.5725028635131	0.04630253429337211	0.2459302361362578	-0.4414463019158437	-0.7027742909925572	-0.01744953180006122	-0.5505331141393009	1.200097242943205	-1.024810502168078	-1.024810502168034	0.3855462851890982	-0.002854781882818942	-0.4892804657777478	-0.03970841261332232	1.166552629810817e-07	1.529370407810313e-07	-5.750546140908627e-07	1.246329213283156e-06	-1.853755623767258e-08	1.787151276769711e-07	-9.045808832618693e-07
1.51	-0.1041611284267208	0.06446828215557872	0.874732175419189	0.6468448473111149	-0.2274972440791679	-0.1466965590225961	-0.271579362666819	0.6266881589060254	0.626688158906013	0.04497100327819004	0.1745247711462225	0.2531776118079043	0.05731918378247821	0.2284436676950024	0.1194030777206919	0.317322349151112	-1.440140905880029	0.01902606421140349	-0.2862915007179707	0.7105912302050705	-1.745844783239992	-1.745844783240007	0.2795466528086352	3.528359657840007e-05	-0.6246844355203364	-0.1529276674511413	-0.05927834540208721	-0.01926486167505447	0.006051809265448467	-0.3170101858888667	0.05375008586680007	-0.011048172575958	0.1168146309210264	-35.2884919924684	-24.31310520171275	-4.782197937232755	-3.658494151149054	3.929942853861402	-659.8588639006055	58.62507341286296	0.02375940160096894	0.2354524840643888	-0.4831664374424031	-0.5838495368022032	-0.03990331810684251	-0.518477194556352	1.141259512845641	-0.876284563281444	-0.8762845632776533	0.433886502700228	0.002888710648583286	-0.4433784099035619	-0.05634803002403622	1.263553755716416e-07	1.53569656617261e-07	-7.063877740280294e-07	1.262515740495611e-06	-5.414959784264606e-09	1.846464469608002e-07	-9.948415383495026e-07
1.52	-0.1018757896267604	0.06567388755732144	0.8778805957444271	0.6324163042934789	-0.2273085779767446	-0.1495855591325521	-0.2644175197338077	0.6091884494506139	0.6091884494506471	0.04778702445759	0.1745250862697756	0.2469096362771536	0.05578791762558664	0.2285908891276254	0.1216993689420909	0.3122943940602319	-1.445365820502148	0.0187072957393895	-0.2914916014977503	0.72167170772153	-1.75384548704819	-1.75384548704818	0.28364117585236	2.158665737423015e-05	-0.6288206623539561	-0.1532982686855835	-0.05380101585638453	-0.02106352777223062	0.005410299028945258	-0.3139331165994019	0.05787376648144541	-0.01187565138338613	0.1117115278913264	-36.14406373012469	-22.87955139699295	-4.788439298566821	-3.774154059541006	3.411086443278242	-656.9655691939533	58.75240447656909	0.006578608126736	0.2235719658597196	-0.5219321822863634	-0.4603751086234355	-0.01614903067244263	-0.5285672986847232	1.073318831985963	-0.7230757131507227	-0.7230757131507327	0.3655763832114653	-0.008480158823295071	-0.3811450773785496	-0.006729130750336244	1.358762721935395e-07	1.54099105533169e-07	-8.312844176921784e-07	1.277664018584583e-06	7.187720062828072e-09	1.897729929808367e-07	-1.079223306123512e-06
1.53	-0.09958998216362681	0.06690186023972469	0.8809767737895241	0.6179416308499892	-0.2271231228751614	-0.152526209918448	-0.2571481325834213	0.5916163679925552	0.5916163679925852	0.05064346463597286	0.1745253481182636	0.2406030183154781	0.05425370300107182	0.2285382241226953	0.123872515830242	0.3068792814594721	-1.449359872312424	0.01838397762542225	-0.2966176426920968	0.7320877849354039	-1.760307901355998	-1.760307901355978	0.2876282940860961	2.576776547713814e-05	-0.632408881599766	-0.1535177875318844	-0.04825698531682457	-0.02296867910262846	0.004786469467905769	-0.310916958991683	0.06209107624856391	-0.01284542594123619	0.1065607240111775	-36.96177698236185	-21.42975844924901	-4.861851173944357	-3.869720964941281	2.916723826514941	-654.157421839245	58.79707368804723	-0.0160308808559053	0.2107934319153435	-0.5605515576809124	-0.337552577701123	-0.04026378599940488	-0.5012592450054028	1.00806155301778	-0.5684188488087789	-0.5684188488073721	0.4124310610076897	0.004339280649131449	-0.3335322811515462	-0.02553897204623217	1.452067518487342e-07	1.545189395962351e-07	-9.49342262816246e-07	1.291709156979856e-06	1.923798851571075e-08	1.940444674080937e-07	-1.157358756126796e-06
